simulation
nRows=48
nColumns=15
endheader
time  TH_x TH_y TH_z SC_y  SC_z  SC_x  AC_y  AC_z  AC_x  GH_y  GH_z  GH_yy  EL_x  PS_y
0.500000  0.000000  0.000000  0.000000  -33.132056  3.717402  35.000000  57.190104  5.098987  -15.098531  22.524216  53.296686  -21.837602  17.857988  124.530745
0.500449  0.000000  0.000000  0.000000  -15.083163  16.677424  35.000000  49.007977  -14.220988  -18.508016  25.586149  57.456079  -29.361881  11.416980  128.188610
0.500898  0.000000  0.000000  0.000000  -15.615731  12.950944  35.000000  53.637247  -15.078218  -7.487045  30.114176  46.450389  -30.862794  26.162253  115.131458
0.501346  0.000000  0.000000  0.000000  -14.317133  18.528953  35.000000  50.755248  -13.486651  -14.131526  15.893272  62.632956  -13.736161  19.723731  123.411016
0.501795  0.000000  0.000000  0.000000  -26.151421  18.361390  35.000000  48.527578  -19.352718  -10.975986  32.092074  52.674211  -12.877604  21.935121  128.831930
0.502244  0.000000  0.000000  0.000000  -43.178530  8.090570  35.000000  56.694900  -17.811897  -8.412941  19.976680  59.931575  -14.121088  8.337068  115.557344
0.502693  0.000000  0.000000  0.000000  -35.397988  12.003107  35.000000  60.165503  -18.531863  -5.239266  27.933936  59.358630  -24.991699  7.881772  124.744474
0.503142  0.000000  0.000000  0.000000  -35.019453  12.222641  35.000000  54.517429  -14.927301  -7.404542  16.582903  59.656208  -19.818985  9.859656  117.773466
0.503591  0.000000  0.000000  0.000000  -33.132056  3.717402  41.428571  57.335625  -0.310136  -18.576757  22.524216  53.296686  -21.837602  17.857988  124.530745
0.504039  0.000000  0.000000  0.000000  -44.226337  16.849539  41.428571  54.068619  -19.004550  -10.528306  29.034239  55.398682  -15.178563  10.982373  120.212605
0.504488  0.000000  0.000000  0.000000  -20.239138  18.061861  41.428571  51.781093  -19.144943  -13.444683  29.907609  52.287844  -28.091478  22.720252  127.564447
0.504937  0.000000  0.000000  0.000000  -19.969839  13.082433  41.428571  59.632674  -10.640837  -9.708348  20.511348  57.072960  -15.292957  25.965921  122.394120
0.505386  0.000000  0.000000  0.000000  -26.213791  15.395013  41.428571  55.412426  -19.796416  -10.065964  20.262709  50.782451  -27.260098  13.668597  120.384339
0.505835  0.000000  0.000000  0.000000  -34.500707  20.181553  41.428571  52.598448  -20.574634  -9.710219  27.114416  46.690507  -28.503668  10.640737  120.710076
0.506284  0.000000  0.000000  0.000000  -27.746765  9.685167  41.428571  56.848240  -20.183274  -17.647045  24.931508  56.319138  -29.115990  24.653472  116.512450
0.506732  0.000000  0.000000  0.000000  -14.923943  17.551260  41.428571  48.969656  -22.175436  -12.346174  13.235478  54.710298  -18.386556  21.123492  117.595331
0.507181  0.000000  0.000000  0.000000  -28.139194  20.079854  41.428571  49.147781  -16.849031  -9.789160  31.392610  62.886660  -21.402356  18.016352  122.701407
0.507630  0.000000  0.000000  0.000000  -50.311970  20.332046  41.428571  51.933241  -20.887451  -12.132078  25.107977  46.041962  -15.893628  22.432674  119.056537
0.508079  0.000000  0.000000  0.000000  -33.132056  3.717402  47.857143  57.152285  -5.718116  -22.058548  22.524216  53.296686  -21.837602  17.857988  124.530745
0.508528  0.000000  0.000000  0.000000  -18.738183  6.060618  47.857143  63.319046  -16.488930  -12.615061  18.234093  47.379392  -21.081636  17.818553  131.975903
0.508977  0.000000  0.000000  0.000000  -31.884818  15.065739  47.857143  56.832435  -23.306440  -13.434227  18.120023  53.538042  -21.033312  19.954962  126.760066
0.509425  0.000000  0.000000  0.000000  -13.853394  17.868945  47.857143  49.248651  -21.031667  -12.191553  19.594846  55.300521  -25.764552  20.524460  127.523998
0.509874  0.000000  0.000000  0.000000  -16.589249  7.505047  47.857143  57.737504  -20.808516  -15.602688  21.694028  63.042466  -20.872345  21.768798  121.034070
0.510323  0.000000  0.000000  0.000000  -33.132056  3.717402  54.285714  56.632509  -11.104725  -25.606806  22.524216  53.296686  -21.837602  17.857988  124.530745
0.510772  0.000000  0.000000  0.000000  -27.493298  21.074524  54.285714  47.274824  -34.398375  -17.094100  28.478371  61.158414  -29.114125  13.133483  124.276846
0.511221  0.000000  0.000000  0.000000  -48.257854  -4.301188  54.285714  65.381549  -35.833564  -17.400396  26.873661  62.743362  -26.488967  8.665837  129.970443
0.511670  0.000000  0.000000  0.000000  -40.097595  9.373380  54.285714  55.246472  -31.105960  -21.494792  20.704609  56.760687  -14.566775  19.649603  124.516071
0.512118  0.000000  0.000000  0.000000  -43.847745  12.221529  54.285714  47.540218  -33.693154  -24.712723  16.082836  60.755694  -24.816974  14.187941  128.654360
0.512567  0.000000  0.000000  0.000000  -48.563238  13.787168  54.285714  52.475776  -36.086219  -15.849161  22.411791  52.332500  -14.720873  11.283260  115.274607
0.513016  0.000000  0.000000  0.000000  -15.606634  10.387668  54.285714  50.125704  -30.701269  -19.583210  31.056358  60.993183  -31.528615  23.234855  119.115651
0.513465  0.000000  0.000000  0.000000  -33.132056  3.717402  60.714286  55.754591  -16.448257  -29.288239  22.524216  53.296686  -21.837602  17.857988  124.530745
0.513914  0.000000  0.000000  0.000000  -14.881888  21.393748  60.714286  46.715774  -26.727411  -23.990739  30.968650  56.978100  -19.229954  16.399756  121.784469
0.514363  0.000000  0.000000  0.000000  -30.849630  18.407337  60.714286  46.140813  -40.179088  -24.313236  12.546102  55.859825  -15.297387  18.783366  132.765616
0.514811  0.000000  0.000000  0.000000  -31.299340  7.924010  60.714286  51.720488  -40.606159  -22.610986  15.423162  49.628393  -24.999258  9.346450  130.768534
0.515260  0.000000  0.000000  0.000000  -36.149406  10.232798  60.714286  59.631319  -30.321282  -19.315205  27.268954  60.957891  -17.556116  20.185250  122.752379
0.515709  0.000000  0.000000  0.000000  -33.132056  3.717402  67.142857  54.481148  -21.723943  -33.177238  22.524216  53.296686  -21.837602  17.857988  124.530745
0.516158  0.000000  0.000000  0.000000  -17.485837  4.326953  67.142857  48.922231  -46.100675  -33.006659  32.370910  45.479332  -20.610718  13.588987  125.449434
0.516607  0.000000  0.000000  0.000000  -49.824626  10.547976  67.142857  50.154548  -46.177071  -24.638182  25.652959  50.017864  -20.841049  16.938402  132.015703
0.517056  0.000000  0.000000  0.000000  -20.020485  5.418427  67.142857  45.979721  -41.563341  -32.038878  25.688897  52.881792  -21.609090  12.372600  126.069057
0.517504  0.000000  0.000000  0.000000  -31.103695  6.164037  67.142857  46.310853  -45.190043  -31.140397  28.812234  49.784754  -12.085744  21.460728  122.707983
0.517953  0.000000  0.000000  0.000000  -16.048634  19.485067  67.142857  45.343413  -37.642403  -26.840084  13.007836  59.644290  -21.442024  22.123196  129.282224
0.518402  0.000000  0.000000  0.000000  -26.724240  20.317261  67.142857  45.318394  -32.709621  -25.272680  31.414707  55.125659  -29.754937  23.974512  124.563227
0.518851  0.000000  0.000000  0.000000  -22.803693  22.405979  67.142857  45.810970  -34.688054  -27.469775  32.106545  53.892473  -21.212350  19.434756  127.622332
0.519300  0.000000  0.000000  0.000000  -36.286920  -4.924730  67.142857  59.913714  -44.938096  -25.255492  27.879799  58.138471  -18.218234  8.005053  134.451638
0.519749  0.000000  0.000000  0.000000  -33.132056  3.717402  73.571429  52.756537  -26.902011  -37.360206  22.524216  53.296686  -21.837602  17.857988  124.530745
0.520197  0.000000  0.000000  0.000000  -15.728447  2.810471  73.571429  45.052857  -51.719658  -37.441318  16.372363  59.975070  -25.821601  27.453460  132.707539
0.520646  0.000000  0.000000  0.000000  -36.473595  6.620406  73.571429  52.096330  -46.520817  -28.399552  20.740611  57.453273  -30.262001  23.336563  131.983741
0.521095  0.000000  0.000000  0.000000  -51.164874  8.207470  73.571429  45.592089  -50.963312  -31.894985  27.630191  60.758390  -21.132837  12.002739  117.246482
